<svg xmlns="http://www.w3.org/2000/svg" xmlns:xlink="http://www.w3.org/1999/xlink" width="400" zoomAndPan="magnify" viewBox="0 0 300 299.999988" height="400" preserveAspectRatio="xMidYMid meet" version="1.0"><defs><g/><clipPath id="bc8fd78324"><path d="M 75 0 L 225 0 C 244.890625 0 263.96875 7.902344 278.03125 21.96875 C 292.097656 36.03125 300 55.109375 300 75 L 300 225 C 300 244.890625 292.097656 263.96875 278.03125 278.03125 C 263.96875 292.097656 244.890625 300 225 300 L 75 300 C 55.109375 300 36.03125 292.097656 21.96875 278.03125 C 7.902344 263.96875 0 244.890625 0 225 L 0 75 C 0 55.109375 7.902344 36.03125 21.96875 21.96875 C 36.03125 7.902344 55.109375 0 75 0 " clip-rule="nonzero"/></clipPath></defs><g clip-path="url(#bc8fd78324)"><path fill="#4fb084" d="M 0 0 L 299.53125 0 L 299.53125 299.53125 L 0 299.53125 Z M 0 0 " fill-opacity="1" fill-rule="nonzero"/></g><g fill="#ffffff" fill-opacity="0.302"><g transform="translate(54.195049, 262.049019)"><g><path d="M 25.664062 -144.578125 L 1.988281 -144.578125 C 0.902344 -144.578125 0 -143.675781 0 -142.953125 L 0 -86.203125 L 27.652344 -86.203125 L 27.652344 -118.191406 C 59.097656 -119.820312 82.410156 -106.625 82.410156 -72.289062 C 82.410156 -27.652344 45.179688 -25.84375 27.652344 -26.566406 L 27.652344 -58.375 L 0 -58.375 L 0 -1.625 C 0 -0.902344 0.902344 0 1.988281 0 L 25.664062 0 C 61.625 0 110.242188 -10.480469 110.242188 -72.289062 C 110.242188 -136.445312 60.902344 -144.578125 25.664062 -144.578125 Z M 25.664062 -144.578125 "/></g></g></g><g fill="#ffffff" fill-opacity="0.502"><g transform="translate(46.208103, 254.062068)"><g><path d="M 25.664062 -144.578125 L 1.988281 -144.578125 C 0.902344 -144.578125 0 -143.675781 0 -142.953125 L 0 -86.203125 L 27.652344 -86.203125 L 27.652344 -118.191406 C 59.097656 -119.820312 82.410156 -106.625 82.410156 -72.289062 C 82.410156 -27.652344 45.179688 -25.84375 27.652344 -26.566406 L 27.652344 -58.375 L 0 -58.375 L 0 -1.625 C 0 -0.902344 0.902344 0 1.988281 0 L 25.664062 0 C 61.625 0 110.242188 -10.480469 110.242188 -72.289062 C 110.242188 -136.445312 60.902344 -144.578125 25.664062 -144.578125 Z M 25.664062 -144.578125 "/></g></g></g><g fill="#ffffff" fill-opacity="1"><g transform="translate(38.221157, 246.075122)"><g><path d="M 25.664062 -144.578125 L 1.988281 -144.578125 C 0.902344 -144.578125 0 -143.675781 0 -142.953125 L 0 -86.203125 L 27.652344 -86.203125 L 27.652344 -118.191406 C 59.097656 -119.820312 82.410156 -106.625 82.410156 -72.289062 C 82.410156 -27.652344 45.179688 -25.84375 27.652344 -26.566406 L 27.652344 -58.375 L 0 -58.375 L 0 -1.625 C 0 -0.902344 0.902344 0 1.988281 0 L 25.664062 0 C 61.625 0 110.242188 -10.480469 110.242188 -72.289062 C 110.242188 -136.445312 60.902344 -144.578125 25.664062 -144.578125 Z M 25.664062 -144.578125 "/></g></g></g><g fill="#000000" fill-opacity="0.302"><g transform="translate(181.788292, 193.15396)"><g><path d="M 84.398438 -85.664062 L 27.652344 -85.664062 L 27.652344 -118.371094 L 68.675781 -118.371094 L 68.675781 -144.578125 L 1.988281 -144.578125 C 0.902344 -144.578125 0 -143.675781 0 -142.953125 L 0 -1.625 C 0 -0.902344 0.902344 0 1.988281 0 L 27.652344 0 L 27.652344 -59.457031 L 84.398438 -59.457031 C 85.480469 -59.457031 86.386719 -60.359375 86.386719 -61.085938 L 86.386719 -84.035156 C 86.386719 -84.9375 85.480469 -85.664062 84.398438 -85.664062 Z M 84.398438 -85.664062 "/></g></g></g><g fill="#000000" fill-opacity="0.502"><g transform="translate(173.801335, 185.167012)"><g><path d="M 84.398438 -85.664062 L 27.652344 -85.664062 L 27.652344 -118.371094 L 68.675781 -118.371094 L 68.675781 -144.578125 L 1.988281 -144.578125 C 0.902344 -144.578125 0 -143.675781 0 -142.953125 L 0 -1.625 C 0 -0.902344 0.902344 0 1.988281 0 L 27.652344 0 L 27.652344 -59.457031 L 84.398438 -59.457031 C 85.480469 -59.457031 86.386719 -60.359375 86.386719 -61.085938 L 86.386719 -84.035156 C 86.386719 -84.9375 85.480469 -85.664062 84.398438 -85.664062 Z M 84.398438 -85.664062 "/></g></g></g><g fill="#000000" fill-opacity="1"><g transform="translate(165.814393, 177.180065)"><g><path d="M 84.398438 -85.664062 L 27.652344 -85.664062 L 27.652344 -118.371094 L 68.675781 -118.371094 L 68.675781 -144.578125 L 1.988281 -144.578125 C 0.902344 -144.578125 0 -143.675781 0 -142.953125 L 0 -1.625 C 0 -0.902344 0.902344 0 1.988281 0 L 27.652344 0 L 27.652344 -59.457031 L 84.398438 -59.457031 C 85.480469 -59.457031 86.386719 -60.359375 86.386719 -61.085938 L 86.386719 -84.035156 C 86.386719 -84.9375 85.480469 -85.664062 84.398438 -85.664062 Z M 84.398438 -85.664062 "/></g></g></g></svg>